<?xml version="1.0" encoding="UTF-8"?><svg id="Layer_1" xmlns="http://www.w3.org/2000/svg" viewBox="0 0 925.18 240.42"><defs><style>.cls-1{fill:#e22323;}.cls-2{fill:none;stroke:#000;stroke-miterlimit:10;stroke-width:2px;}.cls-3{fill:#999;}.cls-4{fill:#b3b3b3;}.cls-5{fill:#7f7f7f;}</style></defs><g><path class="cls-5" d="M545.81,156.69c-1.25,7.43-4.31,18.67-12.52,30.7-5.55,8.13-11.85,14.27-17.07,18.6,14.8,11.47,29.59,22.95,44.39,34.42h18.21"/><path class="cls-5" d="M479.8,156.69c1.25,7.43,4.31,18.67,12.52,30.7,5.55,8.13,11.85,14.27,17.07,18.6-14.8,11.47-29.59,22.95-44.39,34.42h-18.21"/><path class="cls-1" d="M553.83,124.14c-3.31,33.31-20,83.76-40.97,83.72-21.26-.04-37.31-51.9-40.97-83.72-2.07-18.02-5.49-47.7,13.93-68.08,8.95-9.39,19.7-13.61,27.04-15.64,6.79,2.07,16.51,6.14,24.96,14.64,20.8,20.92,17.68,52.35,16.02,69.08Z"/></g><path class="cls-5" d="M289.95,88.22c1.54-15.2,4.65-31.27,9.05-47.8h-43c-3.43,16.38-5.73,32.41-6.79,47.8h40.73Z"/><path class="cls-5" d="M413.86,88.22c-1.55-15.2-4.65-31.27-9.06-47.8h43.06c3.44,16.38,5.73,32.41,6.79,47.8h-40.79Z"/><ellipse class="cls-2" cx="671.78" cy="88.35" rx="31.26" ry="31.44"/><ellipse class="cls-2" cx="657.13" cy="193.51" rx="31.26" ry="31.44"/><rect class="cls-1" x="582.82" y="40.42" width="164" height="37.11"/><rect class="cls-1" x="582.82" y="203.3" width="164" height="37.11"/><polyline class="cls-1" points="695.57 77.06 582.82 204.06 634.07 204.06 746.82 77.06"/><g><polyline class="cls-1" points="872.44 40.42 756.39 240.42 809.14 240.42 925.18 40.42"/><path class="cls-1" d="M808.42,42.44c17.07,29.42,34.15,58.85,51.22,88.27-11.14,11.11-22.28,22.21-33.42,33.32-23.52-40.53-47.03-81.06-70.55-121.59"/></g><g><path class="cls-1" d="M125.45,191.83c0-31.48,25.52-57,57-57,20.11,0,37.78,10.43,47.92,26.16,4.93-13.06,7.63-27.21,7.63-41.99C238,53.28,184.72,0,119,0S0,53.28,0,119s53.28,119,119,119c9.05,0,17.86-1.02,26.33-2.93-12.17-10.45-19.88-25.94-19.88-43.24Z"/><circle class="cls-5" cx="182.45" cy="191.83" r="48.1"/><circle class="cls-3" cx="194" cy="168.06" r="8"/><circle class="cls-4" cx="161.5" cy="188.56" r="12.5"/><circle class="cls-3" cx="181" cy="220.06" r="11"/><circle class="cls-3" cx="196" cy="193.06" r="4"/><circle class="cls-4" cx="213.27" cy="185.72" r="6.01"/></g><g><path class="cls-1" d="M250.3,76.04c.17-1.59,.36-3.2,.55-4.8-.2,1.61-.38,3.21-.55,4.8Z"/><path class="cls-1" d="M251.72,64.68c.27-1.91,.56-3.82,.87-5.74-.31,1.92-.6,3.84-.87,5.74Z"/><path class="cls-1" d="M250.98,70.25c.23-1.83,.47-3.67,.74-5.52-.26,1.85-.51,3.69-.74,5.52Z"/><path class="cls-1" d="M254.87,46.01c.36-1.86,.73-3.72,1.13-5.59-.39,1.87-.76,3.73-1.13,5.59Z"/><path class="cls-1" d="M252.76,57.89c.24-1.49,.49-2.99,.75-4.49-.26,1.5-.51,2.99-.75,4.49Z"/><path class="cls-1" d="M253.81,51.71c.24-1.35,.49-2.71,.75-4.07-.26,1.36-.51,2.72-.75,4.07Z"/><path class="cls-1" d="M297.33,46.94c.08-.31,.15-.61,.23-.92-.08,.31-.15,.61-.23,.92Z"/><path class="cls-1" d="M293.39,64.91c.02-.09,.03-.18,.05-.26-.02,.09-.03,.18-.05,.26Z"/><path class="cls-1" d="M292.31,70.92c.02-.09,.03-.18,.05-.27-.02,.09-.03,.18-.05,.27Z"/><path class="cls-1" d="M249.21,88.22c.26-3.74,.59-7.52,.99-11.34-.4,3.81-.74,7.59-.99,11.34Z"/><path class="cls-1" d="M289.95,88.22s0,0,0,0h-40.73c-5.6,81.47,23.54,145.39,103.79,152.2v-40c-52.63-10.54-68.84-55.24-63.05-112.2Z"/><path class="cls-1" d="M295.84,53.19c.06-.28,.13-.55,.19-.83-.06,.28-.13,.55-.19,.83Z"/></g><path class="cls-1" d="M454.6,88.22h-40.73c5.79,56.96-10.42,101.66-63.05,112.2v40c80.24-6.8,109.39-70.72,103.79-152.2Z"/></svg>