<svg width="346" height="92" viewBox="0 0 346 92" fill="none" xmlns="http://www.w3.org/2000/svg">
<g clip-path="url(#clip0_7_272)">
<path d="M200.363 59.052C200.056 61.9761 199.314 66.3996 197.314 71.134C195.962 74.3335 194.426 76.7499 193.153 78.454C196.76 82.968 200.363 87.4859 203.97 91.9999H208.405" fill="#7F7F7F"/>
<path d="M184.816 59.052C185.123 61.9761 185.865 66.3996 187.865 71.134C189.217 74.3335 190.753 76.7499 192.026 78.454C188.419 82.968 184.816 87.4859 181.209 91.9999H176.774" fill="#7F7F7F"/>
<path d="M204.457 46.2381C203.502 59.3472 198.693 79.2018 192.646 79.186C186.517 79.1703 181.893 58.7608 180.836 46.2381C180.239 39.1463 179.253 27.4658 184.851 19.4453C187.433 15.7498 190.529 14.0891 192.646 13.2902C194.603 14.1048 197.404 15.7066 199.84 19.0517C205.836 27.2848 204.936 39.654 204.457 46.2381Z" fill="#E22323"/>
<path d="M135.265 92C97.779 88.8162 88.6718 53.8572 97.1543 13.2902H114.049C105.837 44.1759 109.067 71.0042 135.265 76.258V92Z" fill="#E22323"/>
<path d="M135.265 92C172.751 88.8162 181.858 53.8572 173.375 13.2902H156.481C164.692 44.1759 161.463 71.0042 135.265 76.258V92Z" fill="#E22323"/>
<path d="M110.493 32.1018C111.098 26.1199 112.32 19.7955 114.049 13.2902H97.1543C95.8067 19.7365 94.903 26.0451 94.4866 32.1018H110.493Z" fill="#7F7F7F"/>
<path d="M160.033 32.1018C159.424 26.1199 158.206 19.7955 156.473 13.2902H173.391C174.743 19.7365 175.642 26.0451 176.059 32.1018H160.033Z" fill="#7F7F7F"/>
<path d="M246.437 44.5301C253.22 44.5301 258.719 38.9904 258.719 32.1569C258.719 25.3234 253.22 19.7837 246.437 19.7837C239.654 19.7837 234.156 25.3234 234.156 32.1569C234.156 38.9904 239.654 44.5301 246.437 44.5301Z" stroke="black" stroke-width="2" stroke-miterlimit="10"/>
<path d="M240.681 85.9157C247.464 85.9157 252.963 80.376 252.963 73.5425C252.963 66.709 247.464 61.1693 240.681 61.1693C233.898 61.1693 228.4 66.709 228.4 73.5425C228.4 80.376 233.898 85.9157 240.681 85.9157Z" stroke="black" stroke-width="2" stroke-miterlimit="10"/>
<path d="M275.92 13.2941H211.486V27.8987H275.92V13.2941Z" fill="#E22323"/>
<path d="M275.92 77.3954H211.486V92H275.92V77.3954Z" fill="#E22323"/>
<path d="M255.784 27.8987L211.486 77.3954H231.621L275.92 27.8987" fill="#E22323"/>
<path d="M325.275 13.2902L279.68 92H300.405L346 13.2902" fill="#E22323"/>
<path d="M299.47 13.3413C306.177 24.9195 312.887 36.5017 319.594 48.0799C315.217 52.4522 310.84 56.8206 306.463 61.193C297.223 45.2424 287.986 29.2919 278.745 13.3413" fill="#E22323"/>
<path d="M48.0231 73.5583C48.0231 61.4881 57.7904 51.7006 69.8443 51.7006C77.5411 51.7006 84.3067 55.699 88.1884 61.7321C90.0743 56.7262 91.1076 51.2991 91.1076 45.632C91.1076 20.4291 70.7126 0 45.5519 0C20.3911 0 0 20.4291 0 45.6281C0 70.827 20.395 91.2562 45.5519 91.2562C49.0172 91.2562 52.3882 90.8666 55.6295 90.1346C50.9698 86.1282 48.0192 80.1896 48.0192 73.5543L48.0231 73.5583Z" fill="#E22323"/>
<path d="M69.8443 92.004C80.0145 92.004 88.2591 83.7456 88.2591 73.5583C88.2591 63.3711 80.0145 55.1127 69.8443 55.1127C59.674 55.1127 51.4294 63.3711 51.4294 73.5583C51.4294 83.7456 59.674 92.004 69.8443 92.004Z" fill="#7F7F7F"/>
<path d="M74.2642 67.5094C75.9546 67.5094 77.3249 66.1368 77.3249 64.4437C77.3249 62.7505 75.9546 61.3779 74.2642 61.3779C72.5739 61.3779 71.2036 62.7505 71.2036 64.4437C71.2036 66.1368 72.5739 67.5094 74.2642 67.5094Z" fill="#999999"/>
<path d="M61.8216 77.0963C64.4645 77.0963 66.607 74.9502 66.607 72.3028C66.607 69.6555 64.4645 67.5094 61.8216 67.5094C59.1786 67.5094 57.0361 69.6555 57.0361 72.3028C57.0361 74.9502 59.1786 77.0963 61.8216 77.0963Z" fill="#B3B3B3"/>
<path d="M69.2865 88.5997C71.6126 88.5997 73.4983 86.7108 73.4983 84.3808C73.4983 82.0508 71.6126 80.162 69.2865 80.162C66.9604 80.162 65.0747 82.0508 65.0747 84.3808C65.0747 86.7108 66.9604 88.5997 69.2865 88.5997Z" fill="#999999"/>
<path d="M75.0306 75.5615C75.8768 75.5615 76.5628 74.8743 76.5628 74.0267C76.5628 73.179 75.8768 72.4918 75.0306 72.4918C74.1843 72.4918 73.4983 73.179 73.4983 74.0267C73.4983 74.8743 74.1843 75.5615 75.0306 75.5615Z" fill="#999999"/>
<path d="M81.639 73.5189C82.9106 73.5189 83.9414 72.4864 83.9414 71.2127C83.9414 69.939 82.9106 68.9065 81.639 68.9065C80.3675 68.9065 79.3367 69.939 79.3367 71.2127C79.3367 72.4864 80.3675 73.5189 81.639 73.5189Z" fill="#B3B3B3"/>
</g>
<defs>
<clipPath id="clip0_7_272">
<rect width="346" height="92" fill="white"/>
</clipPath>
</defs>
</svg>
